# xmcd CD database file
#
# Track frame offsets:
#	150
#	16800
#	37654
#	58303
#	72205
#	93322
#	121584
#	137963
#	162043
#	177069
#	192619
#	205796
#	226240
#	248531
#	270893
#
# Disc length: 3885 seconds
#
# Revision: 0
# Processed by: cddbd v1.5.1PL2 Copyright (c) Steve Scherf et al.
# Submitted via: CDex 1.51
#
DISCID=b90f2b0f
DTITLE=Djivilli Quintet - .Give me Five
DYEAR=2005
DGENRE=Jazz
TTITLE0=My Gang
TTITLE1=I'll See You In My Dreams
TTITLE2=Nuages
TTITLE3=Lettre à Holden Caulfield
TTITLE4=Miss Romane
TTITLE5=Out of Nowhere
TTITLE6=Groovin' High
TTITLE7=Something's comin'!
TTITLE8=Four Brothers (& One Sister)
TTITLE9=Murphy's Law
TTITLE10=Donna Lee
TTITLE11=Porto Cabello
TTITLE12=Rich Bitch
TTITLE13=Anniversary Song
TTITLE14=Therre Will Never Be another You
EXTD=YEAR: 2005
EXTT0=
EXTT1=
EXTT2=
EXTT3=
EXTT4=
EXTT5=
EXTT6=
EXTT7=
EXTT8=
EXTT9=
EXTT10=
EXTT11=
EXTT12=
EXTT13=
EXTT14=
PLAYORDER=
